<?xml version="1.0" encoding="UTF-8"?>
<svg id="Layer_1" data-name="Layer 1" xmlns="http://www.w3.org/2000/svg" xmlns:xlink="http://www.w3.org/1999/xlink" viewBox="0 0 1321.55 195.13">
  <defs>
    <style>
      .cls-1 {
        fill: url(#linear-gradient);
      }

      .cls-1, .cls-2, .cls-3, .cls-4, .cls-5, .cls-6, .cls-7, .cls-8, .cls-9, .cls-10, .cls-11, .cls-12, .cls-13, .cls-14 {
        stroke-width: 0px;
      }

      .cls-2 {
        fill: #479ca5;
      }

      .cls-3 {
        fill: url(#linear-gradient-6);
      }

      .cls-4 {
        fill: url(#linear-gradient-7);
      }

      .cls-4, .cls-12, .cls-13 {
        opacity: .5;
      }

      .cls-5 {
        fill: #3d8d9a;
      }

      .cls-6 {
        fill: #4597a0;
      }

      .cls-7 {
        fill: url(#linear-gradient-2);
      }

      .cls-8 {
        fill: #f1562d;
      }

      .cls-9 {
        fill: url(#linear-gradient-9);
      }

      .cls-10 {
        fill: url(#radial-gradient);
      }

      .cls-11 {
        fill: url(#linear-gradient-8);
      }

      .cls-12 {
        fill: url(#linear-gradient-5);
      }

      .cls-13 {
        fill: url(#linear-gradient-3);
      }

      .cls-14 {
        fill: url(#linear-gradient-4);
      }
    </style>
    <linearGradient id="linear-gradient" x1="230.76" y1="97.32" x2="425.4" y2="97.32" gradientTransform="translate(404.55 -230.13) rotate(87.21)" gradientUnits="userSpaceOnUse">
      <stop offset="0" stop-color="#f1562d"/>
      <stop offset="1" stop-color="#d25433"/>
    </linearGradient>
    <radialGradient id="radial-gradient" cx="323.1" cy="97.32" fx="323.1" fy="97.32" r="97.32" gradientTransform="translate(404.55 -230.13) rotate(87.21)" gradientUnits="userSpaceOnUse">
      <stop offset="0" stop-color="#f1562d"/>
      <stop offset=".51" stop-color="#fab391"/>
      <stop offset="1" stop-color="#f1562d"/>
    </radialGradient>
    <linearGradient id="linear-gradient-2" x1="548.13" y1="0" x2="548.13" y2="195.13" gradientTransform="translate(645.7 -450.57) rotate(90)" gradientUnits="userSpaceOnUse">
      <stop offset="0" stop-color="#2c6f7a"/>
      <stop offset=".11" stop-color="#347984"/>
      <stop offset=".35" stop-color="#418894"/>
      <stop offset=".61" stop-color="#48919d"/>
      <stop offset="1" stop-color="#4b94a0"/>
    </linearGradient>
    <linearGradient id="linear-gradient-3" x1="645.7" y1="109.95" x2="450.57" y2="109.95" gradientTransform="translate(658.08 -438.19) rotate(90)" gradientUnits="userSpaceOnUse">
      <stop offset="0" stop-color="#2e737e"/>
      <stop offset=".5" stop-color="#eaeaea"/>
      <stop offset="1" stop-color="#2e737f"/>
    </linearGradient>
    <linearGradient id="linear-gradient-4" x1="388.43" y1="76.8" x2="388.43" y2="271.94" gradientTransform="translate(947.79 -290.86) rotate(90)" xlink:href="#linear-gradient-2"/>
    <linearGradient id="linear-gradient-5" x1="485.99" y1="186.75" x2="290.86" y2="186.75" gradientTransform="translate(960.17 -303.24) rotate(90)" xlink:href="#linear-gradient-3"/>
    <linearGradient id="linear-gradient-6" x1="399.32" y1="236.18" x2="399.32" y2="431.31" gradientTransform="translate(1332.45 -301.76) rotate(90)" xlink:href="#linear-gradient-2"/>
    <linearGradient id="linear-gradient-7" x1="496.89" y1="346.13" x2="301.76" y2="346.13" gradientTransform="translate(1357.21 -301.76) rotate(90)" xlink:href="#linear-gradient-3"/>
    <linearGradient id="linear-gradient-8" x1="901.13" y1="97.57" x2="1096.27" y2="97.57" gradientTransform="translate(1096.27 -901.13) rotate(90)" gradientUnits="userSpaceOnUse">
      <stop offset="0" stop-color="#3d8d9a" stop-opacity="0"/>
      <stop offset="0" stop-color="#3d8d9a" stop-opacity=".02"/>
      <stop offset=".11" stop-color="#3d8d9a" stop-opacity=".28"/>
      <stop offset=".22" stop-color="#3d8d9a" stop-opacity=".5"/>
      <stop offset=".34" stop-color="#3d8d9a" stop-opacity=".68"/>
      <stop offset=".47" stop-color="#3d8d9a" stop-opacity=".82"/>
      <stop offset=".61" stop-color="#3d8d9a" stop-opacity=".92"/>
      <stop offset=".77" stop-color="#3d8d9a" stop-opacity=".98"/>
      <stop offset="1" stop-color="#3d8d9a"/>
    </linearGradient>
    <linearGradient id="linear-gradient-9" x1="414.93" y1="97.32" x2="220.29" y2="97.32" gradientTransform="translate(404.09 -229.64) rotate(87.21)" gradientUnits="userSpaceOnUse">
      <stop offset="0" stop-color="#df5531" stop-opacity="0"/>
      <stop offset="0" stop-color="#df5530" stop-opacity="0"/>
      <stop offset=".12" stop-color="#e35530" stop-opacity=".24"/>
      <stop offset=".24" stop-color="#e6552f" stop-opacity=".44"/>
      <stop offset=".36" stop-color="#ea552e" stop-opacity=".61"/>
      <stop offset=".48" stop-color="#ec552d" stop-opacity=".75"/>
      <stop offset=".6" stop-color="#ee552d" stop-opacity=".86"/>
      <stop offset=".73" stop-color="#ef552d" stop-opacity=".94"/>
      <stop offset=".86" stop-color="#f0552d" stop-opacity=".98"/>
      <stop offset="1" stop-color="#f1562d"/>
    </linearGradient>
  </defs>
  <circle class="cls-1" cx="323.1" cy="97.32" r="97.32" transform="translate(210.14 415.29) rotate(-87.21)"/>
  <circle class="cls-10" cx="323.1" cy="97.32" r="97.32" transform="translate(210.14 415.29) rotate(-87.21)"/>
  <circle class="cls-8" cx="322.6" cy="97.32" r="72.8" transform="translate(25.67 256.62) rotate(-45)"/>
  <path class="cls-8" d="m0,0h195.13v97.57c0,53.85-43.72,97.57-97.57,97.57h0C43.72,195.13,0,151.41,0,97.57V0H0Z" transform="translate(0 195.13) rotate(-90)"/>
  <rect class="cls-5" x="1126.42" y="0" width="195.13" height="195.13" rx="97.57" ry="97.57" transform="translate(1126.42 1321.55) rotate(-90)"/>
  <path class="cls-7" d="m548.13,0h97.57v195.13h-97.57c-53.85,0-97.57-43.72-97.57-97.57h0C450.57,43.72,494.28,0,548.13,0Z" transform="translate(450.57 645.7) rotate(-90)"/>
  <path class="cls-13" d="m560.51,12.38h72.8v195.13h-72.8c-53.85,0-97.57-43.72-97.57-97.57h0c0-53.85,43.72-97.57,97.57-97.57Z" transform="translate(438.19 658.08) rotate(-90)"/>
  <path class="cls-6" d="m620.94,24.76v72.8c0,40.21-32.6,72.8-72.8,72.8h0c-40.21,0-72.8-32.6-72.8-72.8V24.76h145.61Z"/>
  <g>
    <path class="cls-14" d="m773.42,0h97.57v195.13h-97.57c-53.85,0-97.57-43.72-97.57-97.57h0C675.85,43.72,719.57,0,773.42,0Z" transform="translate(870.98 -675.85) rotate(90)"/>
    <path class="cls-12" d="m785.8-12.38h72.8v195.13h-72.8c-53.85,0-97.57-43.72-97.57-97.57h0c0-53.85,43.72-97.57,97.57-97.57Z" transform="translate(858.6 -688.23) rotate(90)"/>
    <path class="cls-6" d="m700.61,170.37v-72.8c0-40.21,32.6-72.8,72.8-72.8h0c40.21,0,72.8,32.6,72.8,72.8v72.8s-145.61,0-145.61,0Z"/>
  </g>
  <g>
    <path class="cls-3" d="m998.7,0h97.57v195.13h-97.57c-53.85,0-97.57-43.72-97.57-97.57h0C901.13,43.72,944.85,0,998.7,0Z" transform="translate(1997.4 195.13) rotate(180)"/>
    <path class="cls-4" d="m1023.46,0h72.8v195.13h-72.8c-53.85,0-97.57-43.72-97.57-97.57h0C925.89,43.72,969.61,0,1023.46,0Z" transform="translate(2022.16 195.13) rotate(180)"/>
    <path class="cls-2" d="m925.89,24.76h72.8c40.21,0,72.8,32.6,72.8,72.8h0c0,40.21-32.6,72.8-72.8,72.8h-72.8s0-145.61,0-145.61Z"/>
  </g>
  <path class="cls-11" d="m901.13,0h195.13v97.57c0,53.85-43.72,97.57-97.57,97.57h0c-53.85,0-97.57-43.72-97.57-97.57V0h0Z" transform="translate(901.13 1096.27) rotate(-90)"/>
  <circle class="cls-9" cx="322.6" cy="97.32" r="97.32" transform="translate(209.67 414.8) rotate(-87.21)"/>
</svg>