<?xml version="1.0" encoding="utf-8"?>
<!-- Generator: Adobe Illustrator 28.0.0, SVG Export Plug-In . SVG Version: 6.00 Build 0)  -->
<svg version="1.1" id="Layer_1" xmlns="http://www.w3.org/2000/svg" xmlns:xlink="http://www.w3.org/1999/xlink" x="0px" y="0px"
	 viewBox="0 0 2000 2000" style="enable-background:new 0 0 2000 2000;" xml:space="preserve">
<style type="text/css">
	.st0{fill:#FFFFFF;}
	.st1{opacity:0.5;fill:#FFFFFF;}
</style>
<g>
	
		<ellipse transform="matrix(0.0487 -0.9988 0.9988 0.0487 -368.5292 1612.556)" class="st0" cx="662.32" cy="999.75" rx="97.32" ry="97.32"/>
	
		<ellipse transform="matrix(0.0487 -0.9988 0.9988 0.0487 -368.5292 1612.556)" class="st0" cx="662.32" cy="999.75" rx="97.32" ry="97.32"/>
	<g>
		<g>
			
				<ellipse transform="matrix(0.7071 -0.7071 0.7071 0.7071 -513.0896 760.8057)" class="st0" cx="661.83" cy="999.76" rx="72.8" ry="72.8"/>
		</g>
	</g>
	<path class="st0" d="M534.36,1000L534.36,1000c0,53.88-43.68,97.57-97.57,97.57h-97.57V902.43h97.57
		C490.68,902.43,534.36,946.12,534.36,1000z"/>
	<path class="st0" d="M1660.77,1000L1660.77,1000c0,53.88-43.68,97.57-97.57,97.57h0c-53.88,0-97.57-43.68-97.57-97.57v0
		c0-53.88,43.68-97.57,97.57-97.57h0C1617.09,902.43,1660.77,946.12,1660.77,1000z"/>
	<path class="st0" d="M984.92,902.43V1000c0,53.88-43.68,97.57-97.57,97.57h0c-53.88,0-97.57-43.68-97.57-97.57v-97.57H984.92z"/>
	<path class="st1" d="M984.92,927.2v72.8c0,53.88-43.68,97.57-97.57,97.57h0c-53.88,0-97.57-43.68-97.57-97.57v-72.8H984.92z"/>
	<g>
		<g>
			<path class="st0" d="M960.16,927.2v72.8c0,40.21-32.6,72.8-72.8,72.8h0c-40.21,0-72.8-32.6-72.8-72.8v-72.8H960.16z"/>
		</g>
	</g>
	<g>
		<path class="st0" d="M1015.08,1097.57l0-97.57c0-53.88,43.68-97.57,97.57-97.57h0c53.88,0,97.57,43.68,97.57,97.57v97.57
			L1015.08,1097.57z"/>
		<path class="st1" d="M1015.08,1072.8l0-72.8c0-53.88,43.68-97.57,97.57-97.57h0c53.88,0,97.57,43.68,97.57,97.57v72.8H1015.08z"/>
		<g>
			<g>
				<path class="st0" d="M1039.84,1072.8V1000c0-40.21,32.6-72.8,72.8-72.8h0c40.21,0,72.8,32.6,72.8,72.8l0,72.8H1039.84z"/>
			</g>
		</g>
	</g>
	<g>
		<path class="st0" d="M1240.36,902.43h97.57c53.88,0,97.57,43.68,97.57,97.57v0c0,53.88-43.68,97.57-97.57,97.57l-97.57,0V902.43z"
			/>
		<path class="st1" d="M1265.12,902.43h72.8c53.88,0,97.57,43.68,97.57,97.57v0c0,53.88-43.68,97.57-97.57,97.57l-72.8,0V902.43z"/>
		<g>
			<g>
				<path class="st0" d="M1265.12,927.2h72.8c40.21,0,72.8,32.6,72.8,72.8v0c0,40.21-32.6,72.8-72.8,72.8h-72.8V927.2z"/>
			</g>
		</g>
	</g>
	<path class="st0" d="M1435.49,1000L1435.49,1000c0,53.88-43.68,97.57-97.57,97.57h-97.57V902.43h97.57
		C1391.81,902.43,1435.49,946.12,1435.49,1000z"/>
	
		<ellipse transform="matrix(0.0487 -0.9988 0.9988 0.0487 -368.9996 1612.067)" class="st0" cx="661.83" cy="999.76" rx="97.32" ry="97.32"/>
</g>
</svg>
