<svg width="18" height="18" viewBox="0 0 18 18" fill="none" xmlns="http://www.w3.org/2000/svg">
<path fill-rule="evenodd" clip-rule="evenodd" d="M0 1.875C0 0.839 0.84 0 1.875 0H6.375C7.411 0 8.25 0.84 8.25 1.875V6.375C8.25 7.411 7.41 8.25 6.375 8.25H1.875C1.37772 8.25 0.900805 8.05246 0.549175 7.70083C0.197544 7.3492 0 6.87228 0 6.375V1.875ZM1.875 1.5C1.77554 1.5 1.68016 1.53951 1.60984 1.60984C1.53951 1.68016 1.5 1.77554 1.5 1.875V6.375C1.5 6.582 1.668 6.75 1.875 6.75H6.375C6.47446 6.75 6.56984 6.71049 6.64017 6.64017C6.71049 6.56984 6.75 6.47446 6.75 6.375V1.875C6.75 1.77554 6.71049 1.68016 6.64017 1.60984C6.56984 1.53951 6.47446 1.5 6.375 1.5H1.875ZM9.75 1.875C9.75 0.839 10.59 0 11.625 0H16.125C17.16 0 18 0.84 18 1.875V6.375C18 7.411 17.16 8.25 16.125 8.25H11.625C11.1277 8.25 10.6508 8.05246 10.2992 7.70083C9.94754 7.3492 9.75 6.87228 9.75 6.375V1.875ZM11.625 1.5C11.5255 1.5 11.4302 1.53951 11.3598 1.60984C11.2895 1.68016 11.25 1.77554 11.25 1.875V6.375C11.25 6.582 11.418 6.75 11.625 6.75H16.125C16.2245 6.75 16.3198 6.71049 16.3902 6.64017C16.4605 6.56984 16.5 6.47446 16.5 6.375V1.875C16.5 1.77554 16.4605 1.68016 16.3902 1.60984C16.3198 1.53951 16.2245 1.5 16.125 1.5H11.625ZM3 3.75C3 3.55109 3.07902 3.36032 3.21967 3.21967C3.36032 3.07902 3.55109 3 3.75 3H4.5C4.69891 3 4.88968 3.07902 5.03033 3.21967C5.17098 3.36032 5.25 3.55109 5.25 3.75V4.5C5.25 4.69891 5.17098 4.88968 5.03033 5.03033C4.88968 5.17098 4.69891 5.25 4.5 5.25H3.75C3.55109 5.25 3.36032 5.17098 3.21967 5.03033C3.07902 4.88968 3 4.69891 3 4.5V3.75ZM12.75 3.75C12.75 3.55109 12.829 3.36032 12.9697 3.21967C13.1103 3.07902 13.3011 3 13.5 3H14.25C14.4489 3 14.6397 3.07902 14.7803 3.21967C14.921 3.36032 15 3.55109 15 3.75V4.5C15 4.69891 14.921 4.88968 14.7803 5.03033C14.6397 5.17098 14.4489 5.25 14.25 5.25H13.5C13.3011 5.25 13.1103 5.17098 12.9697 5.03033C12.829 4.88968 12.75 4.69891 12.75 4.5V3.75ZM0 11.625C0 10.589 0.84 9.75 1.875 9.75H6.375C7.411 9.75 8.25 10.59 8.25 11.625V16.125C8.25 17.16 7.41 18 6.375 18H1.875C1.37772 18 0.900805 17.8025 0.549175 17.4508C0.197544 17.0992 0 16.6223 0 16.125V11.625ZM1.875 11.25C1.77554 11.25 1.68016 11.2895 1.60984 11.3598C1.53951 11.4302 1.5 11.5255 1.5 11.625V16.125C1.5 16.332 1.668 16.5 1.875 16.5H6.375C6.47446 16.5 6.56984 16.4605 6.64017 16.3902C6.71049 16.3198 6.75 16.2245 6.75 16.125V11.625C6.75 11.5255 6.71049 11.4302 6.64017 11.3598C6.56984 11.2895 6.47446 11.25 6.375 11.25H1.875ZM9.75 10.5C9.75 10.3011 9.82902 10.1103 9.96967 9.96967C10.1103 9.82902 10.3011 9.75 10.5 9.75H11.25C11.4489 9.75 11.6397 9.82902 11.7803 9.96967C11.921 10.1103 12 10.3011 12 10.5V11.25C12 11.4489 11.921 11.6397 11.7803 11.7803C11.6397 11.921 11.4489 12 11.25 12H10.5C10.3011 12 10.1103 11.921 9.96967 11.7803C9.82902 11.6397 9.75 11.4489 9.75 11.25V10.5ZM15.75 10.5C15.75 10.3011 15.829 10.1103 15.9697 9.96967C16.1103 9.82902 16.3011 9.75 16.5 9.75H17.25C17.4489 9.75 17.6397 9.82902 17.7803 9.96967C17.921 10.1103 18 10.3011 18 10.5V11.25C18 11.4489 17.921 11.6397 17.7803 11.7803C17.6397 11.921 17.4489 12 17.25 12H16.5C16.3011 12 16.1103 11.921 15.9697 11.7803C15.829 11.6397 15.75 11.4489 15.75 11.25V10.5ZM3 13.5C3 13.3011 3.07902 13.1103 3.21967 12.9697C3.36032 12.829 3.55109 12.75 3.75 12.75H4.5C4.69891 12.75 4.88968 12.829 5.03033 12.9697C5.17098 13.1103 5.25 13.3011 5.25 13.5V14.25C5.25 14.4489 5.17098 14.6397 5.03033 14.7803C4.88968 14.921 4.69891 15 4.5 15H3.75C3.55109 15 3.36032 14.921 3.21967 14.7803C3.07902 14.6397 3 14.4489 3 14.25V13.5ZM12.75 13.5C12.75 13.3011 12.829 13.1103 12.9697 12.9697C13.1103 12.829 13.3011 12.75 13.5 12.75H14.25C14.4489 12.75 14.6397 12.829 14.7803 12.9697C14.921 13.1103 15 13.3011 15 13.5V14.25C15 14.4489 14.921 14.6397 14.7803 14.7803C14.6397 14.921 14.4489 15 14.25 15H13.5C13.3011 15 13.1103 14.921 12.9697 14.7803C12.829 14.6397 12.75 14.4489 12.75 14.25V13.5ZM9.75 16.5C9.75 16.3011 9.82902 16.1103 9.96967 15.9697C10.1103 15.829 10.3011 15.75 10.5 15.75H11.25C11.4489 15.75 11.6397 15.829 11.7803 15.9697C11.921 16.1103 12 16.3011 12 16.5V17.25C12 17.4489 11.921 17.6397 11.7803 17.7803C11.6397 17.921 11.4489 18 11.25 18H10.5C10.3011 18 10.1103 17.921 9.96967 17.7803C9.82902 17.6397 9.75 17.4489 9.75 17.25V16.5ZM15.75 16.5C15.75 16.3011 15.829 16.1103 15.9697 15.9697C16.1103 15.829 16.3011 15.75 16.5 15.75H17.25C17.4489 15.75 17.6397 15.829 17.7803 15.9697C17.921 16.1103 18 16.3011 18 16.5V17.25C18 17.4489 17.921 17.6397 17.7803 17.7803C17.6397 17.921 17.4489 18 17.25 18H16.5C16.3011 18 16.1103 17.921 15.9697 17.7803C15.829 17.6397 15.75 17.4489 15.75 17.25V16.5Z" fill="white"/>
</svg>
