<svg width="24" height="24" viewBox="0 0 24 24" fill="none" xmlns="http://www.w3.org/2000/svg">
<path d="M12.0381 22.1104C14.47 17.9074 17.9451 14.4319 22.1485 12C17.9455 9.56815 14.47 6.09302 12.0381 1.88965C9.60623 6.09265 6.13111 9.56815 1.92773 12C6.13073 14.4319 9.60623 17.907 12.0381 22.1104ZM13.366 5.85415C13.5269 5.72402 13.7631 5.74915 13.8932 5.91002C15.7007 8.14652 17.8319 10.0905 20.227 11.6876C20.3312 11.7574 20.3939 11.8744 20.3939 11.9996C20.3939 12.1249 20.3312 12.2419 20.227 12.3116C19.0799 13.0766 17.9792 13.9324 16.9559 14.8556C16.8842 14.9201 16.7942 14.952 16.705 14.952C16.6026 14.952 16.5006 14.9104 16.4264 14.8283C16.2876 14.6745 16.3 14.4375 16.4537 14.2984C17.3672 13.4745 18.3404 12.7028 19.3529 11.9993C17.08 10.4209 15.0494 8.53277 13.3101 6.38102C13.18 6.22015 13.2051 5.9839 13.366 5.85377V5.85415ZM11.83 3.7069C12.0025 3.59177 12.235 3.63865 12.3501 3.81077C12.4502 3.96077 12.5511 4.10927 12.6539 4.2574C12.772 4.42765 12.73 4.66127 12.5597 4.7794C12.4945 4.82477 12.4199 4.84652 12.3464 4.84652C12.2275 4.84652 12.1109 4.79027 12.0381 4.68527C11.9327 4.53377 11.8289 4.38077 11.7261 4.22702C11.6114 4.0549 11.6579 3.82202 11.83 3.7069Z" fill="white"/>
</svg>
